# xmcd
#
# Track frame offsets: 
#        150
#        13402
#        25942
#        38888
#        51755
#        64400
#        76583
#        91386
#        106245
#        120040
#        133036
#        146878
#        159990
#        173046
#        184430
#        196110
#        208966
#        222656
#        236058
#        247160
#
# Disc length: 3463 seconds
#
# Revision: 0
# Processed by: cddbd v1.5.2PL0 Copyright (c) Steve Scherf et al.
# Submitted via: ExactAudioCopy v0.99pb1
#
DISCID=250d8514
DTITLE=Big Bill Broonzy - Volume 1 The Pre-War Years
DYEAR=2007
DGENRE=Blues
TTITLE0=Saturday Night Rub
TTITLE1=I Can't Be Satisfied
TTITLE2=Too Too Train Blues
TTITLE3=How You Want It Done
TTITLE4=Long Tall Mama
TTITLE5=Mississippi River Blues
TTITLE6=C.C. Rider
TTITLE7=Goos Jelly
TTITLE8=Mountian Blues
TTITLE9=Keep Your Hands Off Her
TTITLE10=Horny Frog
TTITLE11=I Want My Hands on It
TTITLE12=New Shake-Em on Down
TTITLE13=Baby I Just Got Wise
TTITLE14=Just a Dream
TTITLE15=You Got to Hit the Right Lick
TTITLE16=Key to the Highway
TTITLE17=Wee Wee Hours
TTITLE18=All by Myself
TTITLE19=I Feel So Good
EXTD=
EXTT0=
EXTT1=
EXTT2=
EXTT3=
EXTT4=
EXTT5=
EXTT6=
EXTT7=
EXTT8=
EXTT9=
EXTT10=
EXTT11=
EXTT12=
EXTT13=
EXTT14=
EXTT15=
EXTT16=
EXTT17=
EXTT18=
EXTT19=
PLAYORDER=
